<?xml version="1.0" encoding="UTF-8" standalone="no"?>
<!-- Created with Inkscape (http://www.inkscape.org/) -->

<svg
   xmlns:dc="http://purl.org/dc/elements/1.1/"
   xmlns:cc="http://creativecommons.org/ns#"
   xmlns:rdf="http://www.w3.org/1999/02/22-rdf-syntax-ns#"
   xmlns:svg="http://www.w3.org/2000/svg"
   xmlns="http://www.w3.org/2000/svg"
   xmlns:sodipodi="http://sodipodi.sourceforge.net/DTD/sodipodi-0.dtd"
   xmlns:inkscape="http://www.inkscape.org/namespaces/inkscape"
   width="70"
   height="70"
   viewBox="0 0 18.520832 18.520833"
   version="1.1"
   id="svg1391"
   inkscape:version="0.92.5 (2060ec1f9f, 2020-04-08)"
   sodipodi:docname="logo.svg">
  <defs
     id="defs1385" />
  <sodipodi:namedview
     id="base"
     pagecolor="#ffffff"
     bordercolor="#666666"
     borderopacity="1.0"
     inkscape:pageopacity="0.0"
     inkscape:pageshadow="2"
     inkscape:zoom="9.6470014"
     inkscape:cx="45.011551"
     inkscape:cy="35.356305"
     inkscape:document-units="mm"
     inkscape:current-layer="layer1"
     showgrid="false"
     inkscape:window-width="1920"
     inkscape:window-height="1017"
     inkscape:window-x="-8"
     inkscape:window-y="-8"
     inkscape:window-maximized="1"
     fit-margin-top="1"
     fit-margin-left="1"
     fit-margin-bottom="1"
     fit-margin-right="1"
     units="px" />
  <metadata
     id="metadata1388">
    <rdf:RDF>
      <cc:Work
         rdf:about="">
        <dc:format>image/svg+xml</dc:format>
        <dc:type
           rdf:resource="http://purl.org/dc/dcmitype/StillImage" />
        <dc:title></dc:title>
      </cc:Work>
    </rdf:RDF>
  </metadata>
  <g
     inkscape:label="Layer 1"
     inkscape:groupmode="layer"
     id="layer1"
     transform="translate(-30.803561,-202.20163)">
    <g
       id="g2404"
       transform="matrix(0.4284888,0,0,0.4284888,0.06390953,159.93986)">
      <g
         style="fill:#ff6600"
         id="g2345">
        <path
           inkscape:connector-curvature="0"
           style="opacity:1;fill:#ff6600;fill-opacity:0.5;fill-rule:evenodd;stroke:none;stroke-width:0.00723871;stroke-linecap:round;stroke-linejoin:miter;stroke-miterlimit:4;stroke-dasharray:0.00723871, 0.04343227;stroke-dashoffset:0;stroke-opacity:1;paint-order:fill markers stroke"
           d="m 93.363409,108.67879 a 12.135512,11.651967 0 0 0 -12.1355,11.65195 12.135512,11.651967 0 0 0 12.1355,11.65196 12.135512,11.651967 0 0 0 12.135501,-11.65196 12.135512,11.651967 0 0 0 -12.135501,-11.65195 z"
           id="path3728-2-9" />
        <path
           inkscape:connector-curvature="0"
           style="opacity:1;fill:#ff6600;fill-opacity:0.5;fill-rule:evenodd;stroke:none;stroke-width:0.006447;stroke-linecap:round;stroke-linejoin:miter;stroke-miterlimit:4;stroke-dasharray:0.006447, 0.03868198;stroke-dashoffset:0;stroke-opacity:1;paint-order:fill markers stroke"
           d="m 78.655084,125.37013 a 2.4271834,2.071529 0 0 1 -2.427184,2.07153 2.4271834,2.071529 0 0 1 -2.427183,-2.07153 2.4271834,2.071529 0 0 1 2.427183,-2.07153 2.4271834,2.071529 0 0 1 2.427184,2.07153 z"
           id="path3730-3-3" />
        <path
           inkscape:connector-curvature="0"
           style="opacity:1;fill:#ff6600;fill-opacity:0.5;fill-rule:evenodd;stroke:none;stroke-width:0.006447;stroke-linecap:round;stroke-linejoin:miter;stroke-miterlimit:4;stroke-dasharray:0.006447, 0.03868198;stroke-dashoffset:0;stroke-opacity:1;paint-order:fill markers stroke"
           d="m 78.966199,114.73361 a 2.4271834,2.071529 0 0 1 -2.427183,2.07153 2.4271834,2.071529 0 0 1 -2.427184,-2.07153 2.4271834,2.071529 0 0 1 2.427184,-2.07152 2.4271834,2.071529 0 0 1 2.427183,2.07152 z"
           id="path3730-8-2-9" />
        <path
           inkscape:connector-curvature="0"
           style="opacity:1;fill:#ff6600;fill-opacity:0.5;fill-rule:evenodd;stroke:none;stroke-width:0.00674941;stroke-linecap:round;stroke-linejoin:miter;stroke-miterlimit:4;stroke-dasharray:0.00674941, 0.04049644;stroke-dashoffset:0;stroke-opacity:1;paint-order:fill markers stroke"
           d="m 95.852606,102.84224 a 2.364796,2.330323 0 0 1 -2.364796,2.33032 2.364796,2.330323 0 0 1 -2.364797,-2.33032 2.364796,2.330323 0 0 1 2.364797,-2.33032 2.364796,2.330323 0 0 1 2.364796,2.33032 z"
           id="path3730-4-4-4" />
        <path
           inkscape:connector-curvature="0"
           style="opacity:1;fill:#ff6600;fill-opacity:0.5;fill-rule:evenodd;stroke:none;stroke-width:0.00650861;stroke-linecap:round;stroke-linejoin:miter;stroke-miterlimit:4;stroke-dasharray:0.00650861, 0.03905163;stroke-dashoffset:0;stroke-opacity:1;paint-order:fill markers stroke"
           d="m 112.94673,114.81329 a 2.4271526,2.1113361 0 0 1 -2.42715,2.11133 2.4271526,2.1113361 0 0 1 -2.42715,-2.11133 2.4271526,2.1113361 0 0 1 2.42715,-2.11134 2.4271526,2.1113361 0 0 1 2.42715,2.11134 z"
           id="path3730-7-6-6" />
        <path
           inkscape:connector-curvature="0"
           style="opacity:1;fill:#ff6600;fill-opacity:0.5;fill-rule:evenodd;stroke:none;stroke-width:0.00665602;stroke-linecap:round;stroke-linejoin:miter;stroke-miterlimit:4;stroke-dasharray:0.00665602, 0.03993617;stroke-dashoffset:0;stroke-opacity:1;paint-order:fill markers stroke"
           d="m 95.479241,137.89888 a 2.2611167,2.3702052 0 0 1 -2.261116,2.37021 2.2611167,2.3702052 0 0 1 -2.261118,-2.37021 2.2611167,2.3702052 0 0 1 2.261118,-2.3702 2.2611167,2.3702052 0 0 1 2.261116,2.3702 z"
           id="path3730-1-5-8" />
        <path
           inkscape:connector-curvature="0"
           style="opacity:1;fill:#ff6600;fill-opacity:0.5;fill-rule:evenodd;stroke:none;stroke-width:0.00575773;stroke-linecap:round;stroke-linejoin:miter;stroke-miterlimit:4;stroke-dasharray:0.00575773, 0.03454643;stroke-dashoffset:0;stroke-opacity:1;paint-order:fill markers stroke"
           d="m 105.22992,107.00522 a 2.0541146,1.9523499 0 0 1 -2.05412,1.95235 2.0541146,1.9523499 0 0 1 -2.05411,-1.95235 2.0541146,1.9523499 0 0 1 2.05411,-1.95235 2.0541146,1.9523499 0 0 1 2.05412,1.95235 z"
           id="path3730-0-8-4" />
        <path
           inkscape:connector-curvature="0"
           style="opacity:1;fill:#ff6600;fill-opacity:0.5;fill-rule:evenodd;stroke:none;stroke-width:0.00575773;stroke-linecap:round;stroke-linejoin:miter;stroke-miterlimit:4;stroke-dasharray:0.00575773, 0.03454643;stroke-dashoffset:0;stroke-opacity:1;paint-order:fill markers stroke"
           d="m 85.065682,106.56702 a 2.0541146,1.9523499 0 0 1 -2.054115,1.95235 2.0541146,1.9523499 0 0 1 -2.054115,-1.95235 2.0541146,1.9523499 0 0 1 2.054115,-1.95235 2.0541146,1.9523499 0 0 1 2.054115,1.95235 z"
           id="path3730-0-2-1-1" />
        <path
           inkscape:connector-curvature="0"
           style="opacity:1;fill:#ff6600;fill-opacity:0.5;fill-rule:evenodd;stroke:none;stroke-width:0.00575773;stroke-linecap:round;stroke-linejoin:miter;stroke-miterlimit:4;stroke-dasharray:0.00575773, 0.03454643;stroke-dashoffset:0;stroke-opacity:1;paint-order:fill markers stroke"
           d="m 110.78968,125.25062 a 2.0541146,1.9523499 0 0 1 -2.05412,1.95235 2.0541146,1.9523499 0 0 1 -2.05411,-1.95235 2.0541146,1.9523499 0 0 1 2.05411,-1.95235 2.0541146,1.9523499 0 0 1 2.05412,1.95235 z"
           id="path3730-0-1-7-7" />
        <path
           inkscape:connector-curvature="0"
           style="opacity:1;fill:#ff6600;fill-opacity:0.5;fill-rule:evenodd;stroke:none;stroke-width:0.00575773;stroke-linecap:round;stroke-linejoin:miter;stroke-miterlimit:4;stroke-dasharray:0.00575773, 0.03454643;stroke-dashoffset:0;stroke-opacity:1;paint-order:fill markers stroke"
           d="m 105.64488,133.69608 a 2.0541146,1.9523499 0 0 1 -2.05412,1.95235 2.0541146,1.9523499 0 0 1 -2.05411,-1.95235 2.0541146,1.9523499 0 0 1 2.05411,-1.95235 2.0541146,1.9523499 0 0 1 2.05412,1.95235 z"
           id="path3730-0-5-5-6" />
        <path
           inkscape:connector-curvature="0"
           style="opacity:1;fill:#ff6600;fill-opacity:0.5;fill-rule:evenodd;stroke:none;stroke-width:0.00520306;stroke-linecap:round;stroke-linejoin:miter;stroke-miterlimit:4;stroke-dasharray:0.00520306, 0.03121836;stroke-dashoffset:0;stroke-opacity:1;paint-order:fill markers stroke"
           d="m 84.982979,132.66032 a 1.8262038,1.7932758 0 0 1 -1.826204,1.79327 1.8262038,1.7932758 0 0 1 -1.826204,-1.79327 1.8262038,1.7932758 0 0 1 1.826204,-1.79328 1.8262038,1.7932758 0 0 1 1.826204,1.79328 z"
           id="path3730-0-0-7-7" />
        <path
           inkscape:connector-curvature="0"
           style="opacity:1;fill:#ff6600;fill-opacity:0.5;fill-rule:evenodd;stroke:none;stroke-width:0.00472712;stroke-linecap:round;stroke-linejoin:miter;stroke-miterlimit:4;stroke-dasharray:0.00472712, 0.02836272;stroke-dashoffset:0;stroke-opacity:1;paint-order:fill markers stroke"
           d="m 99.576827,133.75584 a 1.6342419,1.6540764 0 0 1 -1.634243,1.65408 1.6342419,1.6540764 0 0 1 -1.634243,-1.65408 1.6342419,1.6540764 0 0 1 1.634243,-1.65408 1.6342419,1.6540764 0 0 1 1.634243,1.65408 z"
           id="path3730-0-7-2-7" />
        <path
           inkscape:connector-curvature="0"
           style="opacity:1;fill:#ff6600;fill-opacity:0.5;fill-rule:evenodd;stroke:none;stroke-width:0.00423253;stroke-linecap:round;stroke-linejoin:miter;stroke-miterlimit:4;stroke-dasharray:0.00423252, 0.02539513;stroke-dashoffset:0;stroke-opacity:1;paint-order:fill markers stroke"
           d="m 89.832339,134.17411 a 1.4892771,1.4551298 0 0 1 -1.489276,1.45513 1.4892771,1.4551298 0 0 1 -1.489278,-1.45513 1.4892771,1.4551298 0 0 1 1.489278,-1.45513 1.4892771,1.4551298 0 0 1 1.489276,1.45513 z"
           id="path3730-0-7-7-4-0" />
        <path
           inkscape:connector-curvature="0"
           style="opacity:1;fill:#ff6600;fill-opacity:0.5;fill-rule:evenodd;stroke:none;stroke-width:0.00417416;stroke-linecap:round;stroke-linejoin:miter;stroke-miterlimit:4;stroke-dasharray:0.00417416, 0.02504496;stroke-dashoffset:0;stroke-opacity:1;paint-order:fill markers stroke"
           d="m 106.61521,128.57701 a 1.4685618,1.4352398 0 0 1 -1.46856,1.43524 1.4685618,1.4352398 0 0 1 -1.46856,-1.43524 1.4685618,1.4352398 0 0 1 1.46856,-1.43524 1.4685618,1.4352398 0 0 1 1.46856,1.43524 z"
           id="path3730-0-7-7-3-2-8" />
        <path
           inkscape:connector-curvature="0"
           style="opacity:1;fill:#ff6600;fill-opacity:0.5;fill-rule:evenodd;stroke:none;stroke-width:0.00396364;stroke-linecap:round;stroke-linejoin:miter;stroke-miterlimit:4;stroke-dasharray:0.00396364, 0.02378181;stroke-dashoffset:0;stroke-opacity:1;paint-order:fill markers stroke"
           d="m 107.3414,111.70601 a 1.4894168,1.2759975 0 0 1 -1.48942,1.276 1.4894168,1.2759975 0 0 1 -1.48941,-1.276 1.4894168,1.2759975 0 0 1 1.48941,-1.276 1.4894168,1.2759975 0 0 1 1.48942,1.276 z"
           id="path3730-0-7-7-3-5-0-9" />
        <path
           inkscape:connector-curvature="0"
           style="opacity:1;fill:#ff6600;fill-opacity:0.5;fill-rule:evenodd;stroke:none;stroke-width:0.00396364;stroke-linecap:round;stroke-linejoin:miter;stroke-miterlimit:4;stroke-dasharray:0.00396364, 0.02378181;stroke-dashoffset:0;stroke-opacity:1;paint-order:fill markers stroke"
           d="m 79.771018,119.79292 a 1.4894168,1.2759975 0 0 1 -1.489418,1.27599 1.4894168,1.2759975 0 0 1 -1.489417,-1.27599 1.4894168,1.2759975 0 0 1 1.489417,-1.276 1.4894168,1.2759975 0 0 1 1.489418,1.276 z"
           id="path3730-0-7-7-3-5-2-6-8" />
        <path
           inkscape:connector-curvature="0"
           style="opacity:1;fill:#ff6600;fill-opacity:0.5;fill-rule:evenodd;stroke:none;stroke-width:0.00352963;stroke-linecap:round;stroke-linejoin:miter;stroke-miterlimit:4;stroke-dasharray:0.00352963, 0.02117774;stroke-dashoffset:0;stroke-opacity:1;paint-order:fill markers stroke"
           d="m 82.634072,111.90518 a 1.3029215,1.1566911 0 0 1 -1.302921,1.15669 1.3029215,1.1566911 0 0 1 -1.302922,-1.15669 1.3029215,1.1566911 0 0 1 1.302922,-1.1567 1.3029215,1.1566911 0 0 1 1.302921,1.1567 z"
           id="path3730-0-7-7-3-5-3-71-3" />
        <path
           inkscape:connector-curvature="0"
           style="opacity:1;fill:#ff6600;fill-opacity:0.5;fill-rule:evenodd;stroke:none;stroke-width:0.00352963;stroke-linecap:round;stroke-linejoin:miter;stroke-miterlimit:4;stroke-dasharray:0.00352963, 0.02117774;stroke-dashoffset:0;stroke-opacity:1;paint-order:fill markers stroke"
           d="m 90.206087,106.64666 a 1.3029215,1.1566911 0 0 1 -1.302922,1.15669 1.3029215,1.1566911 0 0 1 -1.302921,-1.15669 1.3029215,1.1566911 0 0 1 1.302921,-1.15669 1.3029215,1.1566911 0 0 1 1.302922,1.15669 z"
           id="path3730-0-7-7-3-5-3-8-9-7" />
        <path
           inkscape:connector-curvature="0"
           style="opacity:1;fill:#ff6600;fill-opacity:0.5;fill-rule:evenodd;stroke:none;stroke-width:0.00297745;stroke-linecap:round;stroke-linejoin:miter;stroke-miterlimit:4;stroke-dasharray:0.00297745, 0.01786472;stroke-dashoffset:0;stroke-opacity:1;paint-order:fill markers stroke"
           d="m 99.043805,106.56699 a 1.0750027,0.99760679 0 0 1 -1.075003,0.9976 1.0750027,0.99760679 0 0 1 -1.075004,-0.9976 1.0750027,0.99760679 0 0 1 1.075004,-0.99761 1.0750027,0.99760679 0 0 1 1.075003,0.99761 z"
           id="path3730-0-7-7-3-5-3-83-4-7" />
        <path
           inkscape:connector-curvature="0"
           style="opacity:1;fill:#ff6600;fill-opacity:0.5;fill-rule:evenodd;stroke:none;stroke-width:0.00303429;stroke-linecap:round;stroke-linejoin:miter;stroke-miterlimit:4;stroke-dasharray:0.00303428, 0.01820569;stroke-dashoffset:0;stroke-opacity:1;paint-order:fill markers stroke"
           d="m 109.6653,120.23111 a 1.1164627,0.99757714 0 0 1 -1.11647,0.99758 1.1164627,0.99757714 0 0 1 -1.11646,-0.99758 1.1164627,0.99757714 0 0 1 1.11646,-0.99757 1.1164627,0.99757714 0 0 1 1.11647,0.99757 z"
           id="path3730-0-7-7-3-5-3-7-2-7" />
        <path
           inkscape:connector-curvature="0"
           style="opacity:1;fill:#ff6600;fill-opacity:0.5;fill-rule:evenodd;stroke:none;stroke-width:0.00303429;stroke-linecap:round;stroke-linejoin:miter;stroke-miterlimit:4;stroke-dasharray:0.00303428, 0.01820569;stroke-dashoffset:0;stroke-opacity:1;paint-order:fill markers stroke"
           d="m 82.385418,128.19853 a 1.1164627,0.99757714 0 0 1 -1.116463,0.99758 1.1164627,0.99757714 0 0 1 -1.116462,-0.99758 1.1164627,0.99757714 0 0 1 1.116462,-0.99757 1.1164627,0.99757714 0 0 1 1.116463,0.99757 z"
           id="path3730-0-7-7-3-5-3-7-1-1-5" />
        <path
           style="opacity:1;fill:#ff6600;fill-opacity:0.5;fill-rule:evenodd;stroke:none;stroke-width:0.00835408;stroke-linecap:round;stroke-linejoin:miter;stroke-miterlimit:4;stroke-dasharray:0.00835407, 0.05012444;stroke-dashoffset:0;stroke-opacity:1;paint-order:fill markers stroke"
           d="m 77.763042,115.98987 c 1.506768,0.18395 3.040593,0.29436 4.262103,1.2535 0.98893,-0.31804 0.767252,-1.10606 0.774928,-1.80504 -1.494503,0.0917 -2.989007,-0.25893 -4.483511,-1.10307 z"
           id="path3920-6-6"
           inkscape:connector-curvature="0"
           sodipodi:nodetypes="ccccc" />
        <path
           style="opacity:1;fill:#ff6600;fill-opacity:0.5;fill-rule:evenodd;stroke:none;stroke-width:0.00936279;stroke-linecap:round;stroke-linejoin:miter;stroke-miterlimit:4;stroke-dasharray:0.00936279, 0.05617677;stroke-dashoffset:0;stroke-opacity:1;paint-order:fill markers stroke"
           d="m 77.864308,126.03148 c 1.405928,-0.73707 2.788715,-1.56544 4.438602,-1.34 0.64642,-0.92954 -0.03965,-1.59423 -0.473277,-2.3091 -1.221813,1.00964 -2.722233,1.5698 -4.533439,1.62859 z"
           id="path3920-9-1-5"
           inkscape:connector-curvature="0"
           sodipodi:nodetypes="ccccc" />
        <path
           style="opacity:1;fill:#ff6600;fill-opacity:0.5;fill-rule:evenodd;stroke:none;stroke-width:0.00795215;stroke-linecap:round;stroke-linejoin:miter;stroke-miterlimit:4;stroke-dasharray:0.00795215, 0.04771287;stroke-dashoffset:0;stroke-opacity:1;paint-order:fill markers stroke"
           d="m 94.152939,135.84406 c -0.258995,-1.35188 -0.59711,-2.7117 -0.02206,-3.97996 -0.595218,-0.79394 -1.294588,-0.43316 -1.974226,-0.29115 0.522611,1.28255 0.616477,2.65922 0.232088,4.14086 z"
           id="path3920-9-3-7-7"
           inkscape:connector-curvature="0"
           sodipodi:nodetypes="ccccc" />
        <path
           style="opacity:1;fill:#ff6600;fill-opacity:0.5;fill-rule:evenodd;stroke:none;stroke-width:0.00807344;stroke-linecap:round;stroke-linejoin:miter;stroke-miterlimit:4;stroke-dasharray:0.00807344, 0.04844064;stroke-dashoffset:0;stroke-opacity:1;paint-order:fill markers stroke"
           d="m 103.35118,131.84111 c -1.02461,-0.84343 -2.11772,-1.63773 -2.42013,-2.99917 -0.958604,-0.18648 -1.304088,0.57425 -1.765733,1.15553 1.195063,0.60718 2.101633,1.58448 2.686403,2.97464 z"
           id="path3920-9-0-9-3"
           inkscape:connector-curvature="0"
           sodipodi:nodetypes="ccccc" />
        <path
           style="opacity:1;fill:#ff6600;fill-opacity:0.5;fill-rule:evenodd;stroke:none;stroke-width:0.00839331;stroke-linecap:round;stroke-linejoin:miter;stroke-miterlimit:4;stroke-dasharray:0.00839331, 0.05035986;stroke-dashoffset:0;stroke-opacity:1;paint-order:fill markers stroke"
           d="m 108.57198,114.60321 c -1.30013,0.64086 -2.57881,1.36103 -4.10502,1.16573 -0.59751,0.80782 0.0374,1.38507 0.43881,2.006 1.1297,-0.8776 2.51731,-1.3648 4.19261,-1.4165 z"
           id="path3920-9-6-4-3"
           inkscape:connector-curvature="0"
           sodipodi:nodetypes="ccccc"
           inkscape:transform-center-x="-11.389856"
           inkscape:transform-center-y="-1.3347229" />
        <path
           style="opacity:1;fill:#ff6600;fill-opacity:0.5;fill-rule:evenodd;stroke:none;stroke-width:0.00850627;stroke-linecap:round;stroke-linejoin:miter;stroke-miterlimit:4;stroke-dasharray:0.00850627, 0.0510376;stroke-dashoffset:0;stroke-opacity:1;paint-order:fill markers stroke"
           d="m 92.546871,104.30943 c 0.27552,1.54197 0.630263,3.09165 0.07062,4.55227 0.604968,0.89797 1.30001,0.47329 1.977986,0.2992 -0.538315,-1.45814 -0.648991,-3.03128 -0.28264,-4.73271 z"
           id="path3920-9-8-6-1"
           inkscape:connector-curvature="0"
           sodipodi:nodetypes="ccccc" />
        <path
           style="opacity:1;fill:#ff6600;fill-opacity:0.5;fill-rule:evenodd;stroke:none;stroke-width:0.00740384;stroke-linecap:round;stroke-linejoin:miter;stroke-miterlimit:4;stroke-dasharray:0.00740384, 0.04442304;stroke-dashoffset:0;stroke-opacity:1;paint-order:fill markers stroke"
           d="m 100.8026,111.5328 c 0.54056,-1.05098 0.87709,-2.20922 2.22089,-2.71136 -0.0192,-0.89435 -0.76927,-1.0682 -1.38086,-1.37854 -0.11545,1.49729 -0.88084,2.38326 -2.147044,2.9461 z"
           id="path3920-9-01-2-5"
           inkscape:connector-curvature="0"
           sodipodi:nodetypes="ccccc" />
        <path
           style="opacity:1;fill:#ff6600;fill-opacity:0.5;fill-rule:evenodd;stroke:none;stroke-width:0.009617;stroke-linecap:round;stroke-linejoin:miter;stroke-miterlimit:4;stroke-dasharray:0.009617, 0.05770201;stroke-dashoffset:0;stroke-opacity:1;paint-order:fill markers stroke"
           d="m 82.874292,108.00319 c 1.089407,1.06592 2.344255,1.87183 2.637477,3.92563 1.027377,0.22522 1.383334,-0.79289 1.866492,-1.57545 -1.689095,-0.58708 -2.542609,-1.92631 -2.921539,-3.88686 z"
           id="path3920-9-01-9-97-1"
           inkscape:connector-curvature="0"
           sodipodi:nodetypes="ccccc" />
        <path
           style="opacity:1;fill:#ff6600;fill-opacity:0.5;fill-rule:evenodd;stroke:none;stroke-width:0.005715;stroke-linecap:round;stroke-linejoin:miter;stroke-miterlimit:4;stroke-dasharray:0.005715, 0.03428995;stroke-dashoffset:0;stroke-opacity:1;paint-order:fill markers stroke"
           d="m 78.872014,120.27989 c 0.928416,0.0367 1.848364,-0.10171 2.724207,0.6651 0.599219,-0.29952 0.418508,-0.87288 0.385556,-1.39435 -1.061977,0.39956 -1.96795,0.15483 -2.854088,-0.53899 z"
           id="path3920-9-01-9-9-72-0"
           inkscape:connector-curvature="0"
           sodipodi:nodetypes="ccccc" />
        <path
           style="opacity:1;fill:#ff6600;fill-opacity:0.5;fill-rule:evenodd;stroke:none;stroke-width:0.005715;stroke-linecap:round;stroke-linejoin:miter;stroke-miterlimit:4;stroke-dasharray:0.005715, 0.03428995;stroke-dashoffset:0;stroke-opacity:1;paint-order:fill markers stroke"
           d="m 81.197121,112.33562 c 0.82574,0.40914 1.720716,0.65602 2.178191,1.7059 0.674881,-0.029 0.762783,-0.62209 0.96189,-1.10829 -1.138427,-0.0676 -1.852477,-0.65626 -2.351338,-1.64412 z"
           id="path3920-9-01-9-9-7-2-9"
           inkscape:connector-curvature="0"
           sodipodi:nodetypes="ccccc" />
        <path
           style="opacity:1;fill:#ff6600;fill-opacity:0.5;fill-rule:evenodd;stroke:none;stroke-width:0.005715;stroke-linecap:round;stroke-linejoin:miter;stroke-miterlimit:4;stroke-dasharray:0.005715, 0.03428995;stroke-dashoffset:0;stroke-opacity:1;paint-order:fill markers stroke"
           d="m 88.595323,107.2656 c 0.454282,0.77829 1.059453,1.4578 0.838708,2.57595 0.579841,0.33283 0.993541,-0.11557 1.438717,-0.41596 -0.911222,-0.6587 -1.169268,-1.52771 -1.018647,-2.61601 z"
           id="path3920-9-01-9-9-6-9-9"
           inkscape:connector-curvature="0"
           sodipodi:nodetypes="ccccc" />
        <path
           style="opacity:1;fill:#ff6600;fill-opacity:0.5;fill-rule:evenodd;stroke:none;stroke-width:0.005715;stroke-linecap:round;stroke-linejoin:miter;stroke-miterlimit:4;stroke-dasharray:0.005715, 0.03428995;stroke-dashoffset:0;stroke-opacity:1;paint-order:fill markers stroke"
           d="m 97.399765,106.74204 c -0.119165,0.88482 -0.05585,1.77682 -0.927911,2.5476 0.25844,0.5993 0.869087,0.47651 1.413007,0.49053 -0.32183,-1.05066 0.01123,-1.89584 0.808416,-2.68284 z"
           id="path3920-9-01-9-9-0-1-4"
           inkscape:connector-curvature="0"
           sodipodi:nodetypes="ccccc" />
        <path
           style="opacity:1;fill:#ff6600;fill-opacity:0.5;fill-rule:evenodd;stroke:none;stroke-width:0.00623749;stroke-linecap:round;stroke-linejoin:miter;stroke-miterlimit:4;stroke-dasharray:0.00623749, 0.03742496;stroke-dashoffset:0;stroke-opacity:1;paint-order:fill markers stroke"
           d="m 103.1781,114.50133 c 0.69912,-0.70627 1.24907,-1.53839 2.50663,-1.65057 0.18722,-0.70045 -0.41133,-0.99147 -0.861,-1.36005 -0.43904,1.14203 -1.29189,1.67313 -2.49725,1.84869 z"
           id="path3920-9-01-9-9-4-8-5"
           inkscape:connector-curvature="0"
           sodipodi:nodetypes="ccccc" />
        <path
           style="opacity:1;fill:#ff6600;fill-opacity:0.5;fill-rule:evenodd;stroke:none;stroke-width:0.005715;stroke-linecap:round;stroke-linejoin:miter;stroke-miterlimit:4;stroke-dasharray:0.005715, 0.03428995;stroke-dashoffset:0;stroke-opacity:1;paint-order:fill markers stroke"
           d="m 105.39548,121.06084 c 0.90267,-0.21169 1.74666,-0.58942 2.80948,-0.0856 0.48934,-0.4472 0.15026,-0.95004 -0.0319,-1.44233 -0.90511,0.66642 -1.84624,0.67227 -2.89789,0.24133 z"
           id="path3920-9-01-9-9-2-6-4"
           inkscape:connector-curvature="0"
           sodipodi:nodetypes="ccccc" />
        <path
           style="opacity:1;fill:#ff6600;fill-opacity:0.5;fill-rule:evenodd;stroke:none;stroke-width:0.005715;stroke-linecap:round;stroke-linejoin:miter;stroke-miterlimit:4;stroke-dasharray:0.005715, 0.03428995;stroke-dashoffset:0;stroke-opacity:1;paint-order:fill markers stroke"
           d="m 104.14376,124.47657 c 0.91941,0.12919 1.84936,0.0833 2.63744,0.93339 0.6284,-0.23809 0.51074,-0.82637 0.53443,-1.34831 -1.09949,0.2914 -1.97406,-0.0424 -2.78028,-0.82094 z"
           id="path3920-9-01-9-9-02-1-3"
           inkscape:connector-curvature="0"
           sodipodi:nodetypes="ccccc" />
        <path
           style="opacity:1;fill:#ff6600;fill-opacity:0.5;fill-rule:evenodd;stroke:none;stroke-width:0.005715;stroke-linecap:round;stroke-linejoin:miter;stroke-miterlimit:4;stroke-dasharray:0.005715, 0.03428995;stroke-dashoffset:0;stroke-opacity:1;paint-order:fill markers stroke"
           d="m 101.72046,126.97811 c 0.84257,0.37619 1.74736,0.58753 2.2494,1.61846 0.67307,-0.0556 0.7355,-0.65167 0.91362,-1.14532 -1.14036,-0.0226 -1.87901,-0.58257 -2.41975,-1.5499 z"
           id="path3920-9-01-9-9-9-0-2"
           inkscape:connector-curvature="0"
           sodipodi:nodetypes="ccccc" />
        <path
           style="opacity:1;fill:#ff6600;fill-opacity:0.5;fill-rule:evenodd;stroke:none;stroke-width:0.005715;stroke-linecap:round;stroke-linejoin:miter;stroke-miterlimit:4;stroke-dasharray:0.005715, 0.03428995;stroke-dashoffset:0;stroke-opacity:1;paint-order:fill markers stroke"
           d="m 95.793475,130.63871 c 0.556821,0.71424 1.249713,1.31154 1.183852,2.44785 0.620353,0.25681 0.969122,-0.23988 1.369345,-0.59381 -0.993442,-0.53807 -1.368141,-1.36701 -1.367714,-2.46487 z"
           id="path3920-9-01-9-9-022-0-5"
           inkscape:connector-curvature="0"
           sodipodi:nodetypes="ccccc" />
        <path
           style="opacity:1;fill:#ff6600;fill-opacity:0.5;fill-rule:evenodd;stroke:none;stroke-width:0.005715;stroke-linecap:round;stroke-linejoin:miter;stroke-miterlimit:4;stroke-dasharray:0.005715, 0.03428995;stroke-dashoffset:0;stroke-opacity:1;paint-order:fill markers stroke"
           d="m 88.971309,133.72581 c 0.156542,-0.87943 0.131074,-1.77317 1.035059,-2.50925 -0.23284,-0.6089 -0.848183,-0.51006 -1.391058,-0.5453 0.277057,1.06235 -0.09148,1.89383 -0.921393,2.64905 z"
           id="path3920-9-01-9-9-3-4-5"
           inkscape:connector-curvature="0"
           sodipodi:nodetypes="ccccc" />
        <path
           style="opacity:1;fill:#ff6600;fill-opacity:0.5;fill-rule:evenodd;stroke:none;stroke-width:0.005715;stroke-linecap:round;stroke-linejoin:miter;stroke-miterlimit:4;stroke-dasharray:0.005715, 0.03428995;stroke-dashoffset:0;stroke-opacity:1;paint-order:fill markers stroke"
           d="m 81.644182,128.67794 c 0.690828,-0.59666 1.248121,-1.31294 2.432709,-1.35209 0.210634,-0.61631 -0.335923,-0.90518 -0.739029,-1.25609 -0.468837,0.99836 -1.295004,1.43118 -2.433836,1.52945 z"
           id="path3920-9-01-9-9-23-5-0"
           inkscape:connector-curvature="0"
           sodipodi:nodetypes="ccccc" />
        <path
           style="opacity:1;fill:#ff6600;fill-opacity:0.5;fill-rule:evenodd;stroke:none;stroke-width:0.00682894;stroke-linecap:round;stroke-linejoin:miter;stroke-miterlimit:4;stroke-dasharray:0.00682894, 0.0409736;stroke-dashoffset:0;stroke-opacity:1;paint-order:fill markers stroke"
           d="m 84.392298,132.18959 c 0.451232,-0.97485 0.696327,-2.01794 1.968101,-2.61455 -0.08228,-0.7718 -0.824417,-0.83185 -1.441543,-1.02675 -0.0059,1.3099 -0.6876,2.16902 -1.879564,2.80883 z"
           id="path3920-9-01-9-9-63-1-3"
           inkscape:connector-curvature="0"
           sodipodi:nodetypes="ccccc" />
      </g>
      <g
         transform="matrix(0.13158823,0,0,0.12634499,52.475454,104.11716)"
         id="g4272-5-7"
         style="fill:#ff6600;fill-opacity:0.51020406;stroke:none">
        <path
           inkscape:connector-curvature="0"
           style="opacity:1;fill:#ff6600;fill-opacity:0.51020406;fill-rule:evenodd;stroke:none;stroke-width:0.05233303;stroke-linecap:round;stroke-linejoin:miter;stroke-miterlimit:4;stroke-dasharray:0.05233303, 0.3139982;stroke-dashoffset:0;stroke-opacity:1;paint-order:fill markers stroke"
           d="m 272.10632,107.18692 a 17.655882,17.655882 0 0 1 -17.65588,17.65588 17.655882,17.655882 0 0 1 -17.65588,-17.65588 17.655882,17.655882 0 0 1 17.65588,-17.655882 17.655882,17.655882 0 0 1 17.65588,17.655882 z"
           id="path4124-5-1" />
        <path
           inkscape:connector-curvature="0"
           style="opacity:1;fill:#ff6600;fill-opacity:0.51020406;fill-rule:evenodd;stroke:none;stroke-width:0.01873698;stroke-linecap:round;stroke-linejoin:miter;stroke-miterlimit:4;stroke-dasharray:0.01873698, 0.1124219;stroke-dashoffset:0;stroke-opacity:1;paint-order:fill markers stroke"
           d="m 311.53579,122.00621 a 6.3213992,6.3213992 0 0 1 -6.3214,6.3214 6.3213992,6.3213992 0 0 1 -6.3214,-6.3214 6.3213992,6.3213992 0 0 1 6.3214,-6.3214 6.3213992,6.3213992 0 0 1 6.3214,6.3214 z"
           id="path4124-1-3-5" />
        <path
           inkscape:connector-curvature="0"
           style="opacity:1;fill:#ff6600;fill-opacity:0.51020406;fill-rule:evenodd;stroke:none;stroke-width:0.03646851;stroke-linecap:round;stroke-linejoin:miter;stroke-miterlimit:4;stroke-dasharray:0.0364685, 0.21881102;stroke-dashoffset:0;stroke-opacity:1;paint-order:fill markers stroke"
           d="m 326.34624,60.837456 a 12.30358,12.30358 0 0 1 -12.30358,12.30358 12.30358,12.30358 0 0 1 -12.30358,-12.30358 12.30358,12.30358 0 0 1 12.30358,-12.303581 12.30358,12.30358 0 0 1 12.30358,12.303581 z"
           id="path4124-8-6-4" />
        <path
           inkscape:connector-curvature="0"
           style="opacity:1;fill:#ff6600;fill-opacity:0.51020406;fill-rule:evenodd;stroke:none;stroke-width:0.03086912;stroke-linecap:round;stroke-linejoin:miter;stroke-miterlimit:4;stroke-dasharray:0.03086911, 0.1852147;stroke-dashoffset:0;stroke-opacity:1;paint-order:fill markers stroke"
           d="m 375.85159,120.43006 a 10.414484,10.414484 0 0 1 -10.41449,10.41449 10.414484,10.414484 0 0 1 -10.41448,-10.41449 10.414484,10.414484 0 0 1 10.41448,-10.41448 10.414484,10.414484 0 0 1 10.41449,10.41448 z"
           id="path4124-8-2-8-1" />
        <path
           inkscape:connector-curvature="0"
           style="opacity:1;fill:#ff6600;fill-opacity:0.51020406;fill-rule:evenodd;stroke:none;stroke-width:0.04253451;stroke-linecap:round;stroke-linejoin:miter;stroke-miterlimit:4;stroke-dasharray:0.04253451, 0.25520704;stroke-dashoffset:0;stroke-opacity:1;paint-order:fill markers stroke"
           d="m 373.95395,163.15393 a 14.350101,14.350101 0 0 1 -14.3501,14.3501 14.350101,14.350101 0 0 1 -14.3501,-14.3501 14.350101,14.350101 0 0 1 14.3501,-14.3501 14.350101,14.350101 0 0 1 14.3501,14.3501 z"
           id="path4124-8-1-0-8" />
        <path
           inkscape:connector-curvature="0"
           style="opacity:1;fill:#ff6600;fill-opacity:0.51020406;fill-rule:evenodd;stroke:none;stroke-width:0.03646851;stroke-linecap:round;stroke-linejoin:miter;stroke-miterlimit:4;stroke-dasharray:0.0364685, 0.21881102;stroke-dashoffset:0;stroke-opacity:1;paint-order:fill markers stroke"
           d="m 327.29195,159.52785 a 12.30358,12.30358 0 0 1 -12.30358,12.30358 12.30358,12.30358 0 0 1 -12.30358,-12.30358 12.30358,12.30358 0 0 1 12.30358,-12.30358 12.30358,12.30358 0 0 1 12.30358,12.30358 z"
           id="path4124-8-24-8-6" />
        <path
           inkscape:connector-curvature="0"
           style="opacity:1;fill:#ff6600;fill-opacity:0.51020406;fill-rule:evenodd;stroke:none;stroke-width:0.02293666;stroke-linecap:round;stroke-linejoin:miter;stroke-miterlimit:4;stroke-dasharray:0.02293665, 0.13761992;stroke-dashoffset:0;stroke-opacity:1;paint-order:fill markers stroke"
           d="m 258.56242,151.48743 a 7.738265,7.738265 0 0 1 -7.73826,7.73826 7.738265,7.738265 0 0 1 -7.73827,-7.73826 7.738265,7.738265 0 0 1 7.73827,-7.73827 7.738265,7.738265 0 0 1 7.73826,7.73827 z"
           id="path4124-8-5-0-6" />
        <path
           inkscape:connector-curvature="0"
           style="opacity:1;fill:#ff6600;fill-opacity:0.51020406;fill-rule:evenodd;stroke:none;stroke-width:0.01873698;stroke-linecap:round;stroke-linejoin:miter;stroke-miterlimit:4;stroke-dasharray:0.01873698, 0.1124219;stroke-dashoffset:0;stroke-opacity:1;paint-order:fill markers stroke"
           d="m 360.4077,80.701599 a 6.3213992,6.3213992 0 0 1 -6.3214,6.321399 6.3213992,6.3213992 0 0 1 -6.3214,-6.321399 6.3213992,6.3213992 0 0 1 6.3214,-6.321399 6.3213992,6.3213992 0 0 1 6.3214,6.321399 z"
           id="path4124-1-6-1-2" />
        <path
           inkscape:connector-curvature="0"
           style="opacity:1;fill:#ff6600;fill-opacity:0.51020406;fill-rule:evenodd;stroke:none;stroke-width:0.01873698;stroke-linecap:round;stroke-linejoin:miter;stroke-miterlimit:4;stroke-dasharray:0.01873698, 0.1124219;stroke-dashoffset:0;stroke-opacity:1;paint-order:fill markers stroke"
           d="m 288.20308,185.06726 a 6.3213992,6.3213992 0 0 1 -6.3214,6.3214 6.3213992,6.3213992 0 0 1 -6.3214,-6.3214 6.3213992,6.3213992 0 0 1 6.3214,-6.3214 6.3213992,6.3213992 0 0 1 6.3214,6.3214 z"
           id="path4124-1-7-9-7" />
        <path
           inkscape:connector-curvature="0"
           style="opacity:1;fill:#ff6600;fill-opacity:0.51020406;fill-rule:evenodd;stroke:none;stroke-width:0.00940467;stroke-linecap:round;stroke-linejoin:miter;stroke-miterlimit:4;stroke-dasharray:0.00940467, 0.05642803;stroke-dashoffset:0;stroke-opacity:1;paint-order:fill markers stroke"
           d="m 280.95574,151.0143 a 3.1729062,3.1729062 0 0 1 -3.1729,3.1729 3.1729062,3.1729062 0 0 1 -3.17291,-3.1729 3.1729062,3.1729062 0 0 1 3.17291,-3.17291 3.1729062,3.1729062 0 0 1 3.1729,3.17291 z"
           id="path4124-1-8-0-3" />
        <path
           inkscape:connector-curvature="0"
           style="opacity:1;fill:#ff6600;fill-opacity:0.51020406;fill-rule:evenodd;stroke:none;stroke-width:0.00940467;stroke-linecap:round;stroke-linejoin:miter;stroke-miterlimit:4;stroke-dasharray:0.00940467, 0.05642803;stroke-dashoffset:0;stroke-opacity:1;paint-order:fill markers stroke"
           d="m 303.02691,93.629066 a 3.1729062,3.1729062 0 0 1 -3.17291,3.172907 3.1729062,3.1729062 0 0 1 -3.1729,-3.172907 3.1729062,3.1729062 0 0 1 3.1729,-3.172906 3.1729062,3.1729062 0 0 1 3.17291,3.172906 z"
           id="path4124-1-8-4-8-6" />
        <path
           inkscape:connector-curvature="0"
           style="opacity:1;fill:#ff6600;fill-opacity:0.51020406;fill-rule:evenodd;stroke:none;stroke-width:0.00940467;stroke-linecap:round;stroke-linejoin:miter;stroke-miterlimit:4;stroke-dasharray:0.00940467, 0.05642803;stroke-dashoffset:0;stroke-opacity:1;paint-order:fill markers stroke"
           d="m 328.56658,188.85092 a 3.1729062,3.1729062 0 0 1 -3.1729,3.17291 3.1729062,3.1729062 0 0 1 -3.17291,-3.17291 3.1729062,3.1729062 0 0 1 3.17291,-3.1729 3.1729062,3.1729062 0 0 1 3.1729,3.1729 z"
           id="path4124-1-8-8-7-0" />
        <path
           inkscape:connector-curvature="0"
           style="opacity:1;fill:#ff6600;fill-opacity:0.51020406;fill-rule:evenodd;stroke:none;stroke-width:0.00940467;stroke-linecap:round;stroke-linejoin:miter;stroke-miterlimit:4;stroke-dasharray:0.00940467, 0.05642803;stroke-dashoffset:0;stroke-opacity:1;paint-order:fill markers stroke"
           d="m 283.47808,66.828217 a 3.1729062,3.1729062 0 0 1 -3.1729,3.172906 3.1729062,3.1729062 0 0 1 -3.17291,-3.172906 3.1729062,3.1729062 0 0 1 3.17291,-3.172907 3.1729062,3.1729062 0 0 1 3.1729,3.172907 z"
           id="path4124-1-8-89-5-2" />
        <path
           inkscape:connector-curvature="0"
           style="opacity:1;fill:#ff6600;fill-opacity:0.51020406;fill-rule:evenodd;stroke:none;stroke-width:0.00940467;stroke-linecap:round;stroke-linejoin:miter;stroke-miterlimit:4;stroke-dasharray:0.00940467, 0.05642803;stroke-dashoffset:0;stroke-opacity:1;paint-order:fill markers stroke"
           d="m 338.02566,117.90749 a 3.1729062,3.1729062 0 0 1 -3.17291,3.17291 3.1729062,3.1729062 0 0 1 -3.1729,-3.17291 3.1729062,3.1729062 0 0 1 3.1729,-3.1729 3.1729062,3.1729062 0 0 1 3.17291,3.1729 z"
           id="path4124-1-8-5-7-6" />
      </g>
    </g>
  </g>
</svg>
